<svg width="78" height="78" viewBox="0 0 78 78" fill="none" xmlns="http://www.w3.org/2000/svg">
<path d="M71.5 38.6425V41.535C71.5 53.105 68.6075 55.965 57.07 55.965H20.93C9.3925 55.965 6.5 53.0725 6.5 41.535V20.93C6.5 9.3925 9.3925 6.5 20.93 6.5H26" stroke="#5756D8" stroke-width="3" stroke-linecap="round" stroke-linejoin="round"/>
<path d="M39 55.965V71.5" stroke="#5756D8" stroke-width="3" stroke-linecap="round" stroke-linejoin="round"/>
<path d="M6.5 42.25H71.5" stroke="#5756D8" stroke-width="3" stroke-linecap="round" stroke-linejoin="round"/>
<path d="M24.375 71.5H53.625" stroke="#5756D8" stroke-width="3" stroke-linecap="round" stroke-linejoin="round"/>
<path d="M58.0445 30.4525H42.5745C38.0895 30.4525 36.5945 27.4625 36.5945 24.4725V13.0325C36.5945 9.4575 39.5195 6.5325 43.0945 6.5325H58.0445C61.3595 6.5325 64.0245 9.1975 64.0245 12.5125V24.4725C64.0245 27.7875 61.3595 30.4525 58.0445 30.4525Z" stroke="#5756D8" stroke-width="3" stroke-linecap="round" stroke-linejoin="round"/>
<path d="M67.9579 25.74L64.0254 22.9775V14.0075L67.9579 11.245C69.9079 9.91251 71.5004 10.725 71.5004 13.0975V23.92C71.5004 26.2925 69.9079 27.105 67.9579 25.74Z" stroke="#5756D8" stroke-width="3" stroke-linecap="round" stroke-linejoin="round"/>
</svg>
