<svg width="18" height="18" viewBox="0 0 18 18" fill="none" xmlns="http://www.w3.org/2000/svg">
<path d="M9.6675 4.41003H3.8325C2.55 4.41003 1.5 5.46003 1.5 6.74253V15.2625C1.5 16.35 2.28 16.815 3.2325 16.2825L6.18 14.64C6.495 14.4675 7.005 14.4675 7.3125 14.64L10.26 16.2825C11.22 16.8075 12 16.35 12 15.2625V6.74253C12 5.46003 10.95 4.41003 9.6675 4.41003Z" fill="#BDBDBD"/>
<path d="M16.5001 3.8325V12.3525C16.5001 13.44 15.7201 13.8975 14.7676 13.3725L13.3201 12.5625C13.2001 12.495 13.1251 12.3675 13.1251 12.2325V6.7425C13.1251 4.8375 11.5726 3.285 9.66756 3.285H6.61506C6.33756 3.285 6.14256 2.9925 6.27006 2.7525C6.66006 2.01 7.44006 1.5 8.33256 1.5H14.1676C15.4501 1.5 16.5001 2.55 16.5001 3.8325Z" fill="#BDBDBD"/>
</svg>
