<svg width="30" height="30" viewBox="0 0 30 30" fill="none" xmlns="http://www.w3.org/2000/svg">
<path d="M2.5 11.25V8.125C2.5 5.0125 5.0125 2.5 8.125 2.5H11.25" stroke="#58595B" stroke-width="2" stroke-linecap="round" stroke-linejoin="round"/>
<path d="M18.75 2.5H21.875C24.9875 2.5 27.5 5.0125 27.5 8.125V11.25" stroke="#58595B" stroke-width="2" stroke-linecap="round" stroke-linejoin="round"/>
<path d="M27.5 20V21.875C27.5 24.9875 24.9875 27.5 21.875 27.5H20" stroke="#58595B" stroke-width="2" stroke-linecap="round" stroke-linejoin="round"/>
<path d="M11.25 27.5H8.125C5.0125 27.5 2.5 24.9875 2.5 21.875V18.75" stroke="#58595B" stroke-width="2" stroke-linecap="round" stroke-linejoin="round"/>
<path d="M21.25 11.875V18.125C21.25 20.625 20 21.875 17.5 21.875H12.5C10 21.875 8.75 20.625 8.75 18.125V11.875C8.75 9.375 10 8.125 12.5 8.125H17.5C20 8.125 21.25 9.375 21.25 11.875Z" stroke="#58595B" stroke-width="2" stroke-linecap="round" stroke-linejoin="round"/>
<path d="M23.75 15H6.25" stroke="#58595B" stroke-width="2" stroke-linecap="round" stroke-linejoin="round"/>
</svg>
