<svg width="18" height="18" viewBox="0 0 18 18" fill="none" xmlns="http://www.w3.org/2000/svg">
<path d="M15.2699 9.54762C14.9924 9.54762 14.7599 9.33762 14.7299 9.06012C14.5499 7.41012 13.6649 5.92512 12.2999 4.98012C12.0524 4.80762 11.9924 4.47012 12.1649 4.22262C12.3374 3.97512 12.6749 3.91512 12.9224 4.08762C14.5499 5.22012 15.5999 6.99012 15.8174 8.94762C15.8474 9.24762 15.6299 9.51761 15.3299 9.54762C15.3074 9.54762 15.2924 9.54762 15.2699 9.54762Z" fill="#BDBDBD"/>
<path d="M2.80491 9.58497C2.78991 9.58497 2.76741 9.58497 2.75241 9.58497C2.45241 9.55497 2.23491 9.28497 2.26491 8.98497C2.46741 7.02747 3.50241 5.25747 5.11491 4.11747C5.35491 3.94497 5.69991 4.00497 5.87241 4.24497C6.04491 4.49247 5.98491 4.82997 5.74491 5.00247C4.39491 5.96247 3.51741 7.44747 3.35241 9.08997C3.32241 9.37497 3.08241 9.58497 2.80491 9.58497Z" fill="#BDBDBD"/>
<path d="M11.9926 15.8249C11.0701 16.2674 10.0801 16.4924 9.04507 16.4924C7.96508 16.4924 6.93757 16.2524 5.97758 15.7649C5.70758 15.6374 5.60258 15.3074 5.73758 15.0374C5.86508 14.7674 6.19508 14.6624 6.46508 14.7899C6.93758 15.0299 7.44008 15.1949 7.95008 15.2924C8.64007 15.4274 9.34507 15.4349 10.0351 15.3149C10.5451 15.2249 11.0476 15.0674 11.5126 14.8424C11.7901 14.7149 12.1201 14.8199 12.2401 15.0974C12.3751 15.3674 12.2701 15.6974 11.9926 15.8249Z" fill="#BDBDBD"/>
<path d="M9.03736 1.50757C7.87486 1.50757 6.92236 2.45257 6.92236 3.62257C6.92236 4.79257 7.86736 5.73757 9.03736 5.73757C10.2074 5.73757 11.1524 4.79257 11.1524 3.62257C11.1524 2.45257 10.2074 1.50757 9.03736 1.50757Z" fill="#BDBDBD"/>
<path d="M3.78736 10.4025C2.62486 10.4025 1.67236 11.3475 1.67236 12.5175C1.67236 13.6875 2.61736 14.6325 3.78736 14.6325C4.95736 14.6325 5.90236 13.6875 5.90236 12.5175C5.90236 11.3475 4.94986 10.4025 3.78736 10.4025Z" fill="#BDBDBD"/>
<path d="M14.2125 10.4025C13.05 10.4025 12.0975 11.3475 12.0975 12.5175C12.0975 13.6875 13.0425 14.6325 14.2125 14.6325C15.3825 14.6325 16.3275 13.6875 16.3275 12.5175C16.3275 11.3475 15.3825 10.4025 14.2125 10.4025Z" fill="#BDBDBD"/>
</svg>
