<svg width="247" height="245" viewBox="0 0 247 245" fill="none" xmlns="http://www.w3.org/2000/svg">
<g filter="url(#filter0_d_0_466)">
<path d="M102.905 13.4459C102.905 14.6133 103.37 15.7327 104.195 16.5582C105.021 17.3836 106.14 17.8477 107.307 17.8484H117.881C121.384 17.8484 124.743 19.2398 127.22 21.7167C129.697 24.1935 131.088 27.5529 131.088 31.0557C131.088 34.5584 129.697 37.9178 127.22 40.3946C124.743 42.8715 121.384 44.2629 117.881 44.2629H94V35.458H117.881C118.461 35.461 119.036 35.3493 119.573 35.1294C120.109 34.9095 120.597 34.5857 121.009 34.1766C121.42 33.7675 121.746 33.2812 121.969 32.7456C122.191 32.21 122.306 31.6356 122.306 31.0556C122.306 30.4755 122.191 29.9012 121.969 29.3656C121.746 28.83 121.42 28.3437 121.009 27.9346C120.597 27.5255 120.109 27.2017 119.573 26.9818C119.036 26.7619 118.461 26.6502 117.881 26.6532H107.307C103.804 26.6532 100.445 25.2617 97.9682 22.7848C95.4914 20.308 94.0999 16.9487 94.0999 13.4459C94.0999 9.94309 95.4914 6.58376 97.9682 4.10691C100.445 1.63007 103.804 0.238586 107.307 0.238586H131.188V9.04341H107.307C106.14 9.04341 105.02 9.50724 104.194 10.3329C103.369 11.1585 102.905 12.2783 102.905 13.4459H102.905Z" fill="#5756D8"/>
</g>
<path opacity="0.47" d="M124.417 19.5773L124.255 19.4862C121.479 20.7333 120.346 24.4593 122.516 27.0719L130.065 36.162C130.42 35.3385 130.68 34.4776 130.841 33.5957L128.787 26.4369L124.417 19.5773Z" fill="black"/>
<g filter="url(#filter1_d_0_466)">
<path d="M144.094 13.5231C144.053 15.9487 141.973 17.8482 139.547 17.8482H129.119L128.084 17.8605C123.971 17.9093 121.754 22.7066 124.382 25.8708L139.658 44.2628H153L137.091 26.553L139.693 26.6531C141.552 26.6524 143.39 26.2595 145.087 25.4998C146.784 24.7401 148.301 23.6309 149.54 22.2447C150.779 20.8584 151.711 19.2263 152.276 17.455C152.841 15.6837 153.025 13.8132 152.818 11.9657C152.069 5.23915 146.218 0.238586 139.45 0.238586H115.811V9.04341H139.693C140.278 9.04341 140.856 9.15986 141.395 9.38596C141.935 9.61206 142.423 9.94328 142.833 10.3603C143.243 10.7773 143.565 11.2718 143.782 11.8148C143.999 12.3578 144.105 12.9386 144.095 13.5231H144.094Z" fill="#5756D8"/>
</g>
<defs>
<filter id="filter0_d_0_466" x="-3.05176e-05" y="0.238586" width="225.189" height="244.024" filterUnits="userSpaceOnUse" color-interpolation-filters="sRGB">
<feFlood flood-opacity="0" result="BackgroundImageFix"/>
<feColorMatrix in="SourceAlpha" type="matrix" values="0 0 0 0 0 0 0 0 0 0 0 0 0 0 0 0 0 0 127 0" result="hardAlpha"/>
<feOffset dy="106"/>
<feGaussianBlur stdDeviation="47"/>
<feColorMatrix type="matrix" values="0 0 0 0 0.360784 0 0 0 0 0.509804 0 0 0 0 0.968627 0 0 0 0.078 0"/>
<feBlend mode="normal" in2="BackgroundImageFix" result="effect1_dropShadow_0_466"/>
<feBlend mode="normal" in="SourceGraphic" in2="effect1_dropShadow_0_466" result="shape"/>
</filter>
<filter id="filter1_d_0_466" x="21.8115" y="0.238586" width="225.189" height="244.024" filterUnits="userSpaceOnUse" color-interpolation-filters="sRGB">
<feFlood flood-opacity="0" result="BackgroundImageFix"/>
<feColorMatrix in="SourceAlpha" type="matrix" values="0 0 0 0 0 0 0 0 0 0 0 0 0 0 0 0 0 0 127 0" result="hardAlpha"/>
<feOffset dy="106"/>
<feGaussianBlur stdDeviation="47"/>
<feColorMatrix type="matrix" values="0 0 0 0 0.360784 0 0 0 0 0.509804 0 0 0 0 0.968627 0 0 0 0.078 0"/>
<feBlend mode="normal" in2="BackgroundImageFix" result="effect1_dropShadow_0_466"/>
<feBlend mode="normal" in="SourceGraphic" in2="effect1_dropShadow_0_466" result="shape"/>
</filter>
</defs>
</svg>
