<svg width="30" height="30" viewBox="0 0 30 30" fill="none" xmlns="http://www.w3.org/2000/svg">
<path d="M23.8249 23.3376L21.1499 18.0001L18.4749 23.3376" stroke="#58595B" stroke-width="1.5" stroke-linecap="round" stroke-linejoin="round"/>
<path d="M18.9625 22.3875H23.3625" stroke="#58595B" stroke-width="1.5" stroke-linecap="round" stroke-linejoin="round"/>
<path d="M21.1499 27.5C17.6499 27.5 14.7999 24.6624 14.7999 21.1499C14.7999 17.6499 17.6374 14.8 21.1499 14.8C24.6499 14.8 27.4999 17.6374 27.4999 21.1499C27.4999 24.6624 24.6624 27.5 21.1499 27.5Z" stroke="#58595B" stroke-width="2" stroke-linecap="round" stroke-linejoin="round"/>
<path d="M6.27501 2.5H11.175C13.7625 2.5 15.0125 3.75002 14.95 6.27502V11.175C15.0125 13.7625 13.7625 15.0125 11.175 14.95H6.27501C3.75001 15 2.5 13.75 2.5 11.1625V6.26251C2.5 3.75001 3.75001 2.5 6.27501 2.5Z" stroke="#58595B" stroke-width="2" stroke-linecap="round" stroke-linejoin="round"/>
<path d="M11.2623 7.31238H6.18726" stroke="#58595B" stroke-width="1.5" stroke-linecap="round" stroke-linejoin="round"/>
<path d="M8.71216 6.46246V7.31245" stroke="#58595B" stroke-width="1.5" stroke-linecap="round" stroke-linejoin="round"/>
<path d="M9.98731 7.29999C9.98731 9.48749 8.2748 11.2625 6.1748 11.2625" stroke="#58595B" stroke-width="1.5" stroke-linecap="round" stroke-linejoin="round"/>
<path d="M11.2624 11.2625C10.3499 11.2625 9.52495 10.775 8.94995 10" stroke="#58595B" stroke-width="1.5" stroke-linecap="round" stroke-linejoin="round"/>
<path d="M2.5 18.75C2.5 23.5875 6.4125 27.5 11.25 27.5L9.9375 25.3125" stroke="#58595B" stroke-width="2" stroke-linecap="round" stroke-linejoin="round"/>
<path d="M27.5 11.25C27.5 6.4125 23.5875 2.5 18.75 2.5L20.0625 4.6875" stroke="#58595B" stroke-width="2" stroke-linecap="round" stroke-linejoin="round"/>
</svg>
